# xmcd CD database file
#
# Track frame offsets:
#	150
#	17853
#	36730
#	52898
#	72314
#	91081
#	106139
#	121522
#	143997
#	165141
#	181663
#	198045
#	214611
#	233477
#
# Disc length: 3435 seconds
#
# Revision: 0
# Processed by: cddbd v1.5.2PL0 Copyright (c) Steve Scherf et al.
# Submitted via: CDex 1.79
#
DISCID=a70d690e
DTITLE=Darren Kozelsky - Arrivals and Departures
DYEAR=2009
DGENRE=Country
TTITLE0=Good Day To Get Gone
TTITLE1=Old Has-Been
TTITLE2=She Got Me There
TTITLE3=Someday Find Me A Preacher
TTITLE4=Loving You Loving Me
TTITLE5=She`s Gonna Hurt Somebody
TTITLE6=Seven Vern Gosdins Ago
TTITLE7=When I Get There
TTITLE8=The Best Of You
TTITLE9=How Did You Know?
TTITLE10=Win Win Situation
TTITLE11=I Get High
TTITLE12=Real Superman
TTITLE13=Arrivals and Departures
EXTD=YEAR: 2009
EXTT0=
EXTT1=
EXTT2=
EXTT3=
EXTT4=
EXTT5=
EXTT6=
EXTT7=
EXTT8=
EXTT9=
EXTT10=
EXTT11=
EXTT12=
EXTT13=
PLAYORDER=
